<svg width="333.7999267578125px" height="122px" xmlns="http://www.w3.org/2000/svg" viewBox="83.10003662109375 14 333.7999267578125 122" style="background: rgba(0, 0, 0, 0);" preserveAspectRatio="xMidYMid"><defs><filter id="editing-extrusion" x="-100%" y="-100%" width="300%" height="300%"><feFlood result="color1" flood-color="#282326"></feFlood><feConvolveMatrix order="8,8" divisor="1" kernelMatrix="1 0 0 0 0 0 0 0 0 1 0 0 0 0 0 0 0 0 1 0 0 0 0 0 0 0 0 1 0 0 0 0 0 0 0 0 1 0 0 0 0 0 0 0 0 1 0 0 0 0 0 0 0 0 1 0 0 0 0 0 0 0 0 1" in="SourceAlpha" result="extrude"></feConvolveMatrix><feComposite in="color1" in2="extrude" result="comp-extrude" operator="in"></feComposite><feOffset dx="4" dy="4" in="comp-extrude" result="offset-extrude"></feOffset><feMerge><feMergeNode in="offset-extrude"></feMergeNode><feMergeNode in="SourceGraphic"></feMergeNode></feMerge></filter></defs><g filter="url(#editing-extrusion)"><g transform="translate(135.7249881029129, 98.68000030517578)"><path d="M26.05-29.57L26.05-29.57L26.05-29.57Q27.01-31.49 27.01-33.28L27.01-33.28L27.01-33.28Q27.01-35.07 26.82-36.06L26.82-36.06L26.82-36.06Q26.62-37.06 26.18-37.82L26.18-37.82L26.18-37.82Q25.22-39.49 23.30-39.49L23.30-39.49L23.30-39.49Q20.93-39.49 19.01-37.76L19.01-37.76L19.01-37.76Q16.96-35.97 16.96-33.15L16.96-33.15L16.96-33.15Q16.96-31.36 18.21-29.98L18.21-29.98L18.21-29.98Q19.46-28.61 21.38-27.33L21.38-27.33L21.38-27.33Q23.30-26.05 25.47-24.77L25.47-24.77L25.47-24.77Q27.65-23.49 29.57-21.95L29.57-21.95L29.57-21.95Q33.98-18.43 33.98-13.70L33.98-13.70L33.98-13.70Q33.98-10.50 32.29-7.78L32.29-7.78L32.29-7.78Q30.59-5.06 27.78-3.07L27.78-3.07L27.78-3.07Q21.63 1.28 13.50 1.28L13.50 1.28L13.50 1.28Q6.91 1.28 3.52-0.86L3.52-0.86L3.52-0.86Q0.13-3.01 0.13-6.27L0.13-6.27L0.13-6.27Q0.13-12.10 4.67-13.57L4.67-13.57L4.67-13.57Q5.95-14.02 7.90-14.02L7.90-14.02L7.90-14.02Q9.86-14.02 12.10-13.18L12.10-13.18L12.10-13.18Q11.07-10.56 11.07-8.19L11.07-8.19L11.07-8.19Q11.07-3.07 14.72-3.07L14.72-3.07L14.72-3.07Q17.09-3.07 19.04-4.80L19.04-4.80L19.04-4.80Q20.99-6.53 20.99-8.48L20.99-8.48L20.99-8.48Q20.99-10.43 19.74-11.84L19.74-11.84L19.74-11.84Q18.50-13.25 16.64-14.37L16.64-14.37L16.64-14.37Q14.78-15.49 12.64-16.58L12.64-16.58L12.64-16.58Q10.50-17.66 8.64-19.20L8.64-19.20L8.64-19.20Q4.29-22.72 4.29-28.35L4.29-28.35L4.29-28.35Q4.29-32 6.08-34.85L6.08-34.85L6.08-34.85Q7.87-37.70 10.75-39.62L10.75-39.62L10.75-39.62Q16.51-43.52 23.58-43.52L23.58-43.52L23.58-43.52Q30.66-43.52 34.08-41.41L34.08-41.41L34.08-41.41Q37.50-39.30 37.50-35.71L37.50-35.71L37.50-35.71Q37.50-32.58 35.07-30.59L35.07-30.59L35.07-30.59Q32.96-28.93 30.40-28.93L30.40-28.93L30.40-28.93Q27.84-28.93 26.05-29.57ZM41.63-1.92L41.63-1.92L41.63-1.92Q40.13-3.58 39.46-6.21L39.46-6.21L39.46-6.21Q38.78-8.83 38.78-13.12L38.78-13.12L38.78-13.12Q38.78-17.41 40.26-21.31L40.26-21.31L40.26-21.31Q41.73-25.22 44.42-28.03L44.42-28.03L44.42-28.03Q49.92-33.92 59.01-33.92L59.01-33.92L59.01-33.92Q62.27-33.92 64.64-32.83L64.64-32.83L75.58-33.92L70.85-8.96L70.85-8.96Q70.66-8.19 70.66-6.78L70.66-6.78L70.66-6.78Q70.66-5.38 71.52-4.48L71.52-4.48L71.52-4.48Q72.38-3.58 73.66-3.46L73.66-3.46L73.66-3.46Q73.02-1.28 70.69 0L70.69 0L70.69 0Q68.35 1.28 65.73 1.28L65.73 1.28L65.73 1.28Q63.10 1.28 61.34 0.29L61.34 0.29L61.34 0.29Q59.58-0.70 59.07-2.37L59.07-2.37L59.07-2.37Q58.05-0.77 55.87 0.26L55.87 0.26L55.87 0.26Q53.70 1.28 50.78 1.28L50.78 1.28L50.78 1.28Q47.87 1.28 45.50 0.51L45.50 0.51L45.50 0.51Q43.14-0.26 41.63-1.92ZM55.14-27.90L55.14-27.90L55.14-27.90Q54.40-26.75 53.76-24.80L53.76-24.80L53.76-24.80Q53.12-22.85 52.06-17.63L52.06-17.63L52.06-17.63Q51.01-12.42 51.01-8.70L51.01-8.70L51.01-8.70Q51.01-4.99 51.58-3.90L51.58-3.90L51.58-3.90Q52.16-2.82 53.18-2.82L53.18-2.82L53.18-2.82Q55.23-2.82 56.74-4.77L56.74-4.77L56.74-4.77Q58.24-6.72 58.82-10.18L58.82-10.18L62.21-28.93L62.21-28.93Q60.86-30.08 59.30-30.08L59.30-30.08L59.30-30.08Q57.73-30.08 56.80-29.57L56.80-29.57L56.80-29.57Q55.87-29.06 55.14-27.90ZM95.55-30.34L95.55-30.34L95.55-30.34Q99.01-33.92 106.30-33.92L106.30-33.92L106.30-33.92Q110.34-33.92 112.54-31.78L112.54-31.78L112.54-31.78Q114.75-29.63 114.75-25.70L114.75-25.70L114.75-25.70Q114.75-21.76 112.54-18.98L112.54-18.98L112.54-18.98Q110.34-16.19 106.24-15.04L106.24-15.04L106.24-15.04Q106.56-13.76 107.01-12.42L107.01-12.42L107.90-9.86L107.90-9.86Q109.12-6.59 110.08-5.44L110.08-5.44L110.08-5.44Q111.04-4.29 112.32-3.90L112.32-3.90L112.32-3.90Q111.62-1.28 109.06 0.13L109.06 0.13L109.06 0.13Q107.01 1.28 104.19 1.28L104.19 1.28L104.19 1.28Q95.94 1.28 94.85-11.46L94.85-11.46L94.85-11.46Q94.66-13.25 94.66-15.04L94.66-15.04L94.66-15.04Q97.86-15.94 100.10-18.94L100.10-18.94L100.10-18.94Q102.34-21.95 102.34-25.47L102.34-25.47L102.34-25.47Q102.34-28.99 99.84-28.99L99.84-28.99L99.84-28.99Q98.05-28.99 96.64-27.01L96.64-27.01L96.64-27.01Q95.23-25.02 94.59-21.63L94.59-21.63L90.37 0L77.44 1.28L86.40-44.80L99.26-46.08L97.79-38.46L97.79-38.46Q96.83-33.09 95.55-30.34ZM138.24-2.69L138.24-2.69L138.24-2.69Q135.17 1.28 127.55 1.28L127.55 1.28L127.55 1.28Q123.58 1.28 120.70-1.12L120.70-1.12L120.70-1.12Q117.82-3.52 117.82-6.98L117.82-6.98L117.82-6.98Q117.82-8.90 118.02-9.86L118.02-9.86L122.30-32.64L135.30-33.92L130.62-9.22L130.62-9.22Q130.37-7.81 130.37-6.98L130.37-6.98L130.37-6.98Q130.37-3.26 132.61-3.26L132.61-3.26L132.61-3.26Q135.10-3.26 136.90-6.66L136.90-6.66L136.90-6.66Q137.47-7.74 137.73-9.15L137.73-9.15L142.27-32.64L154.88-33.92L150.14-8.96L150.14-8.96Q149.95-8 149.95-6.98L149.95-6.98L149.95-6.98Q149.95-5.95 150.53-4.83L150.53-4.83L150.53-4.83Q151.10-3.71 152.96-3.46L152.96-3.46L152.96-3.46Q152.58-1.92 151.23-0.90L151.23-0.90L151.23-0.90Q148.42 1.28 145.38 1.28L145.38 1.28L145.38 1.28Q142.34 1.28 140.54 0.19L140.54 0.19L140.54 0.19Q138.75-0.90 138.24-2.69ZM178.37-17.98L178.37-17.98L178.37-17.98Q180.67-22.08 180.67-26.24L180.67-26.24L180.67-26.24Q180.67-28.99 178.69-28.99L178.69-28.99L178.69-28.99Q177.15-28.99 175.55-26.37L175.55-26.37L175.55-26.37Q173.89-23.74 173.38-20.35L173.38-20.35L170.05 0L156.80 1.28L163.33-32.64L173.89-33.92L172.74-27.46L172.74-27.46Q175.87-33.92 182.91-33.92L182.91-33.92L182.91-33.92Q186.62-33.92 188.64-32L188.64-32L188.64-32Q190.66-30.08 190.66-26.14L190.66-26.14L190.66-26.14Q190.66-22.21 188.06-19.71L188.06-19.71L188.06-19.71Q185.47-17.22 181.06-17.22L181.06-17.22L181.06-17.22Q179.14-17.22 178.37-17.98ZM194.46-1.92L194.46-1.92L194.46-1.92Q192.96-3.58 192.29-6.21L192.29-6.21L192.29-6.21Q191.62-8.83 191.62-13.12L191.62-13.12L191.62-13.12Q191.62-17.41 193.09-21.31L193.09-21.31L193.09-21.31Q194.56-25.22 197.25-28.03L197.25-28.03L197.25-28.03Q202.75-33.92 211.84-33.92L211.84-33.92L211.84-33.92Q215.10-33.92 217.47-32.83L217.47-32.83L228.42-33.92L223.68-8.96L223.68-8.96Q223.49-8.19 223.49-6.78L223.49-6.78L223.49-6.78Q223.49-5.38 224.35-4.48L224.35-4.48L224.35-4.48Q225.22-3.58 226.50-3.46L226.50-3.46L226.50-3.46Q225.86-1.28 223.52 0L223.52 0L223.52 0Q221.18 1.28 218.56 1.28L218.56 1.28L218.56 1.28Q215.94 1.28 214.18 0.29L214.18 0.29L214.18 0.29Q212.42-0.70 211.90-2.37L211.90-2.37L211.90-2.37Q210.88-0.77 208.70 0.26L208.70 0.26L208.70 0.26Q206.53 1.28 203.62 1.28L203.62 1.28L203.62 1.28Q200.70 1.28 198.34 0.51L198.34 0.51L198.34 0.51Q195.97-0.26 194.46-1.92ZM207.97-27.90L207.97-27.90L207.97-27.90Q207.23-26.75 206.59-24.80L206.59-24.80L206.59-24.80Q205.95-22.85 204.90-17.63L204.90-17.63L204.90-17.63Q203.84-12.42 203.84-8.70L203.84-8.70L203.84-8.70Q203.84-4.99 204.42-3.90L204.42-3.90L204.42-3.90Q204.99-2.82 206.02-2.82L206.02-2.82L206.02-2.82Q208.06-2.82 209.57-4.77L209.57-4.77L209.57-4.77Q211.07-6.72 211.65-10.18L211.65-10.18L215.04-28.93L215.04-28.93Q213.70-30.08 212.13-30.08L212.13-30.08L212.13-30.08Q210.56-30.08 209.63-29.57L209.63-29.57L209.63-29.57Q208.70-29.06 207.97-27.90Z" fill="#f7cfe1"></path></g></g><style>text {
  font-size: 64px;
  font-family: Arial Black;
  dominant-baseline: central;
  text-anchor: middle;
}</style></svg>